# Rhino

mtllib 22-04-29_one.mtl
usemtl diffuse_0_0_0_255
v 7.37652587890625 0.60868251323699951 -4.5655646324157715
v 10.221498489379883 0.11645214259624481 1.6597627401351929
v 6.856532096862793 -0.45206892490386963 1.4973741769790649
v 1.8584239482879639 -0.32764285802841187 -5.2101178169250488
v 3.531583309173584 -0.48745337128639221 2.5879812240600586
v 0.92640829086303711 0.0083324452862143517 4.7539505958557129
v -1.7824611663818359 0.58959221839904785 6.8477754592895508
v -4.956207275390625 0.79636698961257935 7.3225464820861816
v -8.313603401184082 -0.61298137903213501 4.3272285461425781
v -8.1820249557495117 0.56845760345458984 5.9719653129577637
v 4.5006818771362305 0.087399974465370178 -5.8424205780029297
v 3.1509509086608887 -0.13075129687786102 -5.8324294090270996
v 0.73724716901779175 -0.48834437131881714 -4.0729942321777344
v -0.388538658618927 -0.62580782175064087 -2.5642948150634766
v -1.568718433380127 -0.72966724634170532 -0.9152228832244873
v -2.8530771732330322 -0.78955674171447754 0.64301812648773193
v -5.4048562049865723 -0.77155607938766479 2.7244014739990234
v 2.6950035095214844 -0.40754809975624084 -1.3110682964324951
v 5.1845965385437012 -0.563365638256073 1.807786226272583
v 5.7038059234619141 -0.17811514437198639 -2.1677775382995605
v 4.1798405647277832 -0.3451697826385498 -2.0149519443511963
v 9.2272481918334961 0.57002782821655273 -7.0102481842041016
v 7.37652587890625 0.60868251323699951 -4.5655646324157715
v 4.7322769165039063 -0.31840261816978455 -7.4200582504272461
v 0.43719029426574707 -0.44249597191810608 -6.8676629066467285
v -3.5381522178649902 0.44674181938171387 -5.0026259422302246
v -7.1034021377563477 0.64451593160629272 -2.2898800373077393
v -10.221498489379883 -0.23031178116798401 0.85147100687026978
v -8.313603401184082 -0.61298137903213501 4.3272285461425781
v -5.4048562049865723 -0.77155607938766479 2.7244014739990234
v -2.8530771732330322 -0.78955674171447754 0.64301812648773193
v -1.568718433380127 -0.72966724634170532 -0.9152228832244873
v -0.388538658618927 -0.62580782175064087 -2.5642948150634766
v 0.73724716901779175 -0.48834437131881714 -4.0729942321777344
v 1.8584239482879639 -0.32764285802841187 -5.2101178169250488
v 3.1509509086608887 -0.13075129687786102 -5.8324294090270996
v 4.5006818771362305 0.087399974465370178 -5.8424205780029297
vt 0.5239255428314209 0
vt 0.17712298035621643 0
vt 0.17712298035621643 0.16885271668434143
vt 0.5239255428314209 0.34398764371871948
vt 0.17712298035621643 0.34398764371871948
vt 0.17712298035621643 0.48119211196899414
vt 0.17712298035621643 0.6194692850112915
vt 0.17712298035621643 0.77260738611221313
vt 0.5239255428314209 0.91993147134780884
vt 0.17712298035621643 0.91993147134780884
vt 0.5239255428314209 0.17199382185935974
vt 0.5239255428314209 0.25799074769020081
vt 0.5239255428314209 0.42122006416320801
vt 0.5239255428314209 0.49845245480537415
vt 0.5239255428314209 0.57568484544754028
vt 0.5239255428314209 0.65291726589202881
vt 0.5239255428314209 0.78642433881759644
vt 0.35052427649497986 0.34398764371871948
vt 0.17712298035621643 0.25642019510269165
vt 0.35052427649497986 0.16885271668434143
vt 0.35052427649497986 0.25642019510269165
vt 0.17565813660621643 0
vt 0 0
vt 0.17565813660621643 0.18733760714530945
vt 0.17565813660621643 0.39349928498268127
vt 0.17565813660621643 0.60890275239944458
vt 0.17565813660621643 0.81363940238952637
vt 0.17565813660621643 0.99853515625
vt 0 0.99853515625
vt 0 0.85362052917480469
vt 0 0.7087058424949646
vt 0 0.62487435340881348
vt 0 0.54104280471801758
vt 0 0.45721125602722168
vt 0 0.37337973713874817
vt 0 0.28003481030464172
vt 0 0.18668986856937408
vn -0.31751334667205811 0.92283809185028076 0.2180713564157486
vn -0.21569381654262543 0.96073579788208008 0.17453640699386597
vn -0.10278650373220444 0.98901242017745972 0.10625164210796356
vn -0.11324286460876465 0.99256408214569092 0.044638510793447495
vn 0.10949072986841202 0.99398291110992432 -0.0031221092212945223
vn 0.14287598431110382 0.98492711782455444 -0.097493529319763184
vn 0.053199879825115204 0.97876018285751343 -0.19798544049263
vn 0.041785877197980881 0.94846940040588379 -0.31410154700279236
vn -0.220288947224617 0.80049633979797363 -0.55738532543182373
vn 0.26049616932868958 0.7741471529006958 -0.57692110538482666
vn -0.18663358688354492 0.97369235754013062 0.13073281943798065
vn -0.13413563370704651 0.98677593469619751 0.090999476611614227
vn -0.14161577820777893 0.98990136384963989 -0.0063465414568781853
vn -0.19776678085327148 0.9780275821685791 -0.065957434475421906
vn -0.24284040927886963 0.96103376150131226 -0.13207076489925385
vn -0.23740364611148834 0.95040494203567505 -0.200922891497612
vn -0.17103274166584015 0.93339389562606812 -0.31547367572784424
vn 0.010636189952492714 0.99977767467498779 0.018206864595413208
vn 0.0022832814138382673 0.99840635061264038 0.056387320160865784
vn -0.14053031802177429 0.98305809497833252 0.11767738312482834
vn -0.05889420211315155 0.99564194679260254 0.072309225797653198
vn -0.19145084917545319 0.96833235025405884 -0.16024692356586456
vn -0.12490444630384445 0.98603558540344238 -0.11014856398105621
vn -0.13825373351573944 0.95404636859893799 -0.26585975289344788
vn 0.10053643584251404 0.98983341455459595 -0.10060945898294449
vn 0.29128438234329224 0.94885909557342529 0.12173670530319214
vn 0.088874854147434235 0.96197962760925293 0.25825661420822144
vn -0.15828365087509155 0.9682508111000061 0.19348549842834473
vn 0.099477775394916534 0.9935307502746582 0.054779678583145142
vn 0.15950341522693634 0.96707206964492798 0.19831849634647369
vn 0.20347440242767334 0.95525598526000977 0.21467234194278717
vn 0.19360566139221191 0.96185487508773804 0.19326686859130859
vn 0.12570963799953461 0.97858202457427979 0.16301630437374115
vn -0.00045494842925108969 0.99396127462387085 0.10973048955202103
vn -0.14914877712726593 0.98881101608276367 -0.0027196889277547598
vn -0.19427983462810516 0.96078884601593018 -0.19783860445022583
vn -0.11238034814596176 0.9582977294921875 -0.26274728775024414
f 5/5/5 19/19/19 21/21/21 18/18/18
f 19/19/19 3/3/3 20/20/20 21/21/21
f 2/2/2 1/1/1 20/20/20
f 11/11/11 20/20/20 1/1/1
f 21/21/21 20/20/20 11/11/11 12/12/12
f 12/12/12 4/4/4 18/18/18 21/21/21
f 3/3/3 2/2/2 20/20/20
f 6/6/6 5/5/5 18/18/18
f 18/18/18 4/4/4 13/13/13
f 6/6/6 13/13/13 14/14/14
f 7/7/7 15/15/15 16/16/16
f 16/16/16 17/17/17 8/8/8 7/7/7
f 6/6/6 14/14/14 15/15/15
f 7/7/7 6/6/6 15/15/15
f 10/10/10 8/8/8 17/17/17 9/9/9
f 18/18/18 13/13/13 6/6/6
f 37/37/37 23/23/23 22/22/22 24/24/24
f 24/24/24 25/25/25 35/35/35 36/36/36
f 24/24/24 36/36/36 37/37/37
f 25/25/25 34/34/34 35/35/35
f 34/34/34 25/25/25 33/33/33
f 26/26/26 32/32/32 33/33/33
f 25/25/25 26/26/26 33/33/33
f 26/26/26 27/27/27 30/30/30 31/31/31
f 27/27/27 28/28/28 29/29/29 30/30/30
f 26/26/26 31/31/31 32/32/32
